<svg xmlns="http://www.w3.org/2000/svg" width="1em" height="1em" viewBox="0 0 48 48"><g fill="none" stroke="currentColor" stroke-linecap="round" stroke-linejoin="round"><path d="M6.70 3.16 5.02 3.72 3.72 5.02 3.16 6.33 3.16 41.67 3.72 42.98 5.02 44.28 6.33 44.84 41.67 44.84 42.98 44.28 44.28 42.98 44.84 41.67 44.84 6.51 44.28 5.02 42.98 3.72 41.49 3.16 6.70 3.16"/><path d="M23.26 3.16 23.26 5.40 25.30 5.40 25.49 3.16"/><path d="M21.40 5.40 21.02 5.58 21.02 7.44 23.26 7.63 23.26 9.86 25.30 9.86 25.49 7.81 23.26 7.63 23.26 5.40 21.40 5.40"/><path d="M21.40 9.86 21.02 10.05 21.02 11.91 23.26 12.09 23.26 14.33 25.30 14.33 25.49 12.28 23.26 12.09 23.26 9.86 21.40 9.86"/><path d="M21.40 14.33 21.02 14.51 21.02 16.37 23.26 16.56 23.26 18.79 21.02 18.98 21.21 20.09 19.53 22.88 19.53 34.60 19.91 35.72 21.21 37.02 24.19 37.40 25.30 37.02 26.98 34.60 26.98 22.88 26.42 22.51 25.30 19.72 24.19 18.98 25.49 18.60 25.49 16.74 23.26 16.56 23.26 14.33 21.40 14.33"/><path d="M22.88 20.28 24.00 20.65 24.00 25.67 23.44 26.23 22.51 25.67 22.33 23.07 22.88 20.28"/><path d="M22.51 30.70 24.93 31.07 26.23 32.93 26.05 34.98 24.00 36.65 21.95 36.47 20.65 35.35 20.28 34.42 20.65 32.00 22.51 30.70"/></g></svg>