<svg xmlns="http://www.w3.org/2000/svg" viewBox="0 0 48 48" width="48" height="48" role="img" aria-label="Pasta Vídeos">
  <title>folder-videos — pasta do tema Dracula</title>
  <path fill="#433f4d" d="M 0.91,7.27 A 3.22,3.22 0 0 1 4.13,4.05 L 14.59,4.05 Q 15.55,4.05 16.2,4.69 L 19.84,8.29 Q 20.49,8.93 21.45,8.93 L 43.71,8.93 A 3.22,3.22 0 0 1 46.93,12.15 L 46.93,39.55 A 4.29,4.29 0 0 1 42.64,43.84 L 5.2,43.84 A 4.29,4.29 0 0 1 0.91,39.55 Z"/>
  <path fill="#534b62" d="M 0.91,16.44 A 4.08,4.08 0 0 1 4.99,12.36 L 42.85,12.36 A 4.08,4.08 0 0 1 46.93,16.44 L 46.93,39.55 A 4.29,4.29 0 0 1 42.64,43.84 L 5.2,43.84 A 4.29,4.29 0 0 1 0.91,39.55 Z"/>
  <path fill="#BD93F9" stroke="#BD93F9" stroke-width="2.4" stroke-linejoin="round" d="M 18.8,24 L 29.6,30 L 18.8,36 Z"/>
</svg>
