<svg xmlns="http://www.w3.org/2000/svg" width="1em" height="1em" viewBox="0 0 48 48"><g fill="none" stroke="currentColor" stroke-linecap="round" stroke-linejoin="round"><path d="M17.30 3.16 14.14 6.51 C13.49 6.51 12.92 6.21 12.28 6.14 C10.77 5.97 9.76 6.70 8.60 7.48 L6.14 10.05 C6.14 11.01 7.14 11.83 7.26 12.84 C7.38 13.94 6.40 15.31 6.14 16.37 L10.20 32.22 C10.73 33.03 11.03 34.97 11.46 35.98 C11.91 37.03 13.05 37.44 13.62 38.29 L22.81 44.54 C23.79 44.78 24.21 44.78 25.19 44.54 L31.22 40.52 L35.13 37.73 C35.52 37.14 36.24 36.67 36.54 35.98 C36.76 35.46 36.94 34.73 37.25 34.27 L41.67 17.12 C41.67 16.82 41.86 16.51 41.82 16.22 C41.55 14.30 40.29 13.71 41.19 11.61 C41.35 11.25 41.48 10.79 41.86 10.60 C41.86 9.03 38.15 6.31 36.65 6.14 C35.67 6.03 34.82 6.51 33.86 6.51 L30.70 3.16 L17.30 3.16 Z"/><path d="M14.33 9.12 9.97 15.18 C9.72 16.20 9.12 16.91 9.12 18.05 C9.70 18.34 10.15 19.17 10.75 19.57 L15.07 23.63 C15.07 24.74 14.03 25.90 14.18 26.94 C14.50 29.20 16.33 29.50 16.93 30.70 L20.99 28.43 L23.44 26.23 C23.44 24.22 19.09 23.55 19.68 21.17 L20.84 18.23 C20.84 17.10 20.22 17.02 19.42 16.48 L15.37 14.96 C15.09 14.77 14.75 14.75 14.51 14.51 C15.96 13.07 20.46 14.88 21.95 15.63 L20.84 20.84 C20.84 21.09 20.84 21.33 20.84 21.58 C21.84 22.09 23.43 22.45 24.56 22.33 C25.37 22.24 26.17 21.77 26.98 21.77 C27.10 21.53 27.16 21.29 27.16 21.02 L26.05 15.63 C27.54 14.88 32.04 13.07 33.49 14.51 C33.38 14.62 33.32 14.69 33.19 14.77 L28.58 16.48 C28.24 16.70 27.78 16.79 27.50 17.08 C26.39 18.19 28.47 20.80 28.47 22.14 L24.56 25.67 C24.56 26.65 25.78 27.14 26.27 27.87 L29.51 30.03 C30.06 30.17 30.49 30.58 31.07 30.70 L33.49 28.28 C33.49 27.80 33.85 27.34 33.79 26.87 C33.62 25.71 32.93 24.81 32.93 23.63 L35.39 21.25 L37.73 19.31 C39.16 17.16 39.08 18.11 38.40 15.37 L35.87 11.76 L33.67 9.12 L28.84 10.23 L24.56 9.12 C23.86 9.12 23.19 9.30 22.51 9.30 L19.16 10.23 L14.33 9.12 Z"/><path d="M18.05 31.26 C18.05 31.70 18.23 31.81 18.46 32.15 L22.66 35.01 C22.91 35.39 23.43 35.51 23.63 35.91 C23.88 35.91 24.12 35.91 24.37 35.91 C24.57 35.51 25.09 35.39 25.34 35.01 L29.95 31.81 C29.95 30.69 27.67 30.23 26.87 29.69 L24.00 28.65 L21.13 29.69 L18.05 31.26 Z"/></g></svg>