<svg xmlns="http://www.w3.org/2000/svg" width="1em" height="1em" viewBox="0 0 48 48"><g fill="none" stroke="currentColor" stroke-linecap="round" stroke-linejoin="round"><path d="M9.34 44.06 C9.85 44.40 10.38 44.69 10.98 44.84 L37.02 44.84 C38.39 44.50 39.29 43.60 39.63 42.23 L39.63 5.95 C39.24 4.40 38.39 3.55 36.84 3.16 L11.16 3.16 C9.61 3.55 8.76 4.40 8.37 5.95 L8.37 42.23 C8.55 42.95 8.94 43.46 9.34 44.06 Z"/><path d="M35.16 12.28 35.16 8.93 C34.98 8.18 34.61 7.81 33.86 7.63 L14.14 7.63 C13.39 7.81 13.02 8.18 12.84 8.93 L12.84 12.28 C13.02 13.03 13.39 13.39 14.14 13.58 L33.86 13.58 C34.61 13.39 34.98 13.03 35.16 12.28 Z"/><path d="M13.02 22.33 C13.35 22.49 14.35 23.49 14.51 23.81 C14.84 23.81 15.11 23.96 15.44 24.00 C16.04 24.07 16.55 23.81 17.12 23.81 C17.28 23.49 18.28 22.49 18.60 22.33 C18.60 21.82 18.85 21.37 18.79 20.84 C18.54 18.57 15.59 17.04 13.80 18.83 C12.72 19.91 13.02 20.99 13.02 22.33 Z"/><path d="M21.21 22.33 C21.54 22.49 22.53 23.49 22.70 23.81 C23.14 23.81 23.55 24.00 24.00 24.00 C24.45 24.00 24.86 23.81 25.30 23.81 C25.47 23.49 26.46 22.49 26.79 22.33 C26.79 21.82 27.04 21.37 26.98 20.84 C26.73 18.57 23.77 17.04 21.99 18.83 C20.91 19.91 21.21 20.99 21.21 22.33 Z"/><path d="M29.40 22.33 C29.72 22.49 30.72 23.49 30.88 23.81 C31.27 23.81 31.61 24.00 32.00 24.00 C32.52 24.00 32.99 23.81 33.49 23.81 C33.65 23.49 34.65 22.49 34.98 22.33 C34.98 21.82 35.22 21.37 35.16 20.84 C34.91 18.57 31.96 17.04 30.18 18.83 C29.10 19.91 29.40 20.99 29.40 22.33 Z"/><path d="M12.84 29.58 C13.24 33.25 19.20 32.69 18.79 29.02 C18.36 25.15 12.41 25.70 12.84 29.58 Z"/><path d="M21.02 29.58 C21.43 33.25 27.38 32.69 26.98 29.02 C26.55 25.15 20.59 25.70 21.02 29.58 Z"/><path d="M29.40 38.88 C29.95 39.16 30.22 39.82 30.81 40.07 C32.66 40.87 34.68 39.90 35.16 37.95 L35.16 28.65 C34.38 25.52 29.99 25.52 29.21 28.65 L29.21 37.95 C29.29 38.27 29.40 38.56 29.40 38.88 Z"/><path d="M12.84 37.77 C13.24 41.43 19.20 40.88 18.79 37.21 C18.36 33.34 12.41 33.89 12.84 37.77 Z"/><path d="M21.02 37.77 C21.43 41.43 27.38 40.88 26.98 37.21 C26.55 33.34 20.59 33.89 21.02 37.77 Z"/></g></svg>