<svg xmlns="http://www.w3.org/2000/svg" width="1em" height="1em" viewBox="0 0 48 48"><g fill="none" stroke="currentColor" stroke-linecap="round" stroke-linejoin="round"><path d="M13.40 27.91 C13.12 28.04 13.08 28.17 13.02 28.47 C11.79 28.47 9.93 28.10 8.97 29.06 C8.55 29.48 8.43 30.15 8.11 30.62 L3.16 42.42 C3.16 43.70 3.78 44.53 5.02 44.84 L42.98 44.84 C44.36 44.49 45.08 43.39 44.73 41.97 L39.33 29.51 C38.40 28.12 36.64 28.47 35.16 28.47 C34.95 28.25 34.88 28.04 34.72 27.80 L33.71 23.96 L30.36 12.80 C30.12 12.43 30.21 11.94 29.77 11.72 C29.86 11.54 29.92 11.40 29.92 11.20 L28.32 5.73 C28.13 5.45 28.11 5.07 27.98 4.76 C27.80 4.33 27.36 4.12 27.16 3.72 C26.36 3.72 25.56 3.25 24.74 3.16 C23.03 2.97 21.01 3.28 20.02 4.76 L15.52 20.17 C15.38 20.37 15.35 20.60 15.22 20.80 L13.73 25.82 C13.58 26.43 13.10 27.32 13.40 27.91 Z"/><path d="M29.77 11.72 C29.71 11.72 29.64 11.72 29.58 11.72 C29.28 12.32 28.42 12.38 27.87 12.61 C24.78 13.94 20.90 13.15 18.05 11.72"/><path d="M15.63 19.91 C16.32 20.25 17.19 20.45 17.82 20.87 L21.77 21.77 L25.86 21.77 C26.24 21.67 26.58 21.58 26.98 21.58 L30.96 20.54 C31.38 20.26 31.91 20.14 32.37 19.91"/><path d="M34.60 27.53 C34.48 27.53 34.36 27.53 34.23 27.53 C33.67 28.66 29.35 29.64 28.09 29.95 L25.12 30.33 C24.50 30.33 23.88 30.33 23.26 30.33 L19.16 29.77 C18.47 29.59 17.77 29.42 17.08 29.25 L13.40 27.91"/><path d="M12.84 28.47 C12.84 28.88 12.79 29.22 12.69 29.62 L11.53 33.49 C11.53 34.01 11.72 34.48 11.72 34.98 C12.40 35.32 12.96 36.04 13.69 36.35 C14.34 36.63 15.16 36.90 15.74 37.28 L18.79 38.14 C19.50 38.14 20.33 38.34 21.02 38.51 L26.23 38.51 C26.99 38.32 27.87 38.14 28.65 38.14 L31.89 37.28 C32.71 36.74 33.95 36.38 34.87 35.98 C35.40 35.75 35.78 35.23 36.28 34.98 C36.28 34.48 36.47 34.01 36.47 33.49 L35.31 29.62 C35.21 29.22 35.16 28.88 35.16 28.47"/></g></svg>